<mxfile host="Electron" agent="Mozilla/5.0 (Windows NT 10.0; Win64; x64) AppleWebKit/537.36 (KHTML, like Gecko) draw.io/28.2.5 Chrome/138.0.7204.251 Electron/37.6.1 Safari/537.36" version="28.2.5">
  <diagram id="C5RBs43oDa-KdzZeNtuy" name="Page-1">
    <mxGraphModel dx="3516" dy="1604" grid="1" gridSize="10" guides="1" tooltips="1" connect="1" arrows="1" fold="1" page="0" pageScale="1" pageWidth="827" pageHeight="1169" math="0" shadow="0">
      <root>
        <mxCell id="WIyWlLk6GJQsqaUBKTNV-0" />
        <mxCell id="WIyWlLk6GJQsqaUBKTNV-1" parent="WIyWlLk6GJQsqaUBKTNV-0" />
        <mxCell id="zkfFHV4jXpPFQw0GAbJ--0" value="s" style="swimlane;fontStyle=2;align=center;verticalAlign=top;childLayout=stackLayout;horizontal=1;startSize=26;horizontalStack=0;resizeParent=1;resizeLast=0;collapsible=1;marginBottom=0;rounded=0;shadow=0;strokeWidth=1;fillColor=#d5e8d4;strokeColor=#82b366;" parent="WIyWlLk6GJQsqaUBKTNV-1" vertex="1">
          <mxGeometry x="420" y="1372.5" width="240" height="170" as="geometry">
            <mxRectangle x="230" y="140" width="160" height="26" as="alternateBounds" />
          </mxGeometry>
        </mxCell>
        <mxCell id="aQq8TngeYzNc_uCb0u1g-41" value="- objects: ScreenObject [1..*]" style="text;align=left;verticalAlign=top;spacingLeft=4;spacingRight=4;overflow=hidden;rotatable=0;points=[[0,0.5],[1,0.5]];portConstraint=eastwest;" vertex="1" parent="zkfFHV4jXpPFQw0GAbJ--0">
          <mxGeometry y="26" width="240" height="26" as="geometry" />
        </mxCell>
        <mxCell id="zkfFHV4jXpPFQw0GAbJ--4" value="" style="line;html=1;strokeWidth=1;align=left;verticalAlign=middle;spacingTop=-1;spacingLeft=3;spacingRight=3;rotatable=0;labelPosition=right;points=[];portConstraint=eastwest;" parent="zkfFHV4jXpPFQw0GAbJ--0" vertex="1">
          <mxGeometry y="52" width="240" height="8" as="geometry" />
        </mxCell>
        <mxCell id="zkfFHV4jXpPFQw0GAbJ--5" value="+ Screen(object: ScreenObject)" style="text;align=left;verticalAlign=top;spacingLeft=4;spacingRight=4;overflow=hidden;rotatable=0;points=[[0,0.5],[1,0.5]];portConstraint=eastwest;" parent="zkfFHV4jXpPFQw0GAbJ--0" vertex="1">
          <mxGeometry y="60" width="240" height="30" as="geometry" />
        </mxCell>
        <mxCell id="gmlxUq-wJRHVVtqLA2Y4-0" value="+ setObject(newObject: ScreenObject)" style="text;align=left;verticalAlign=top;spacingLeft=4;spacingRight=4;overflow=hidden;rotatable=0;points=[[0,0.5],[1,0.5]];portConstraint=eastwest;" parent="zkfFHV4jXpPFQw0GAbJ--0" vertex="1">
          <mxGeometry y="90" width="240" height="26" as="geometry" />
        </mxCell>
        <mxCell id="aQq8TngeYzNc_uCb0u1g-36" value="+ getObject(): ScreenObject" style="text;align=left;verticalAlign=top;spacingLeft=4;spacingRight=4;overflow=hidden;rotatable=0;points=[[0,0.5],[1,0.5]];portConstraint=eastwest;" vertex="1" parent="zkfFHV4jXpPFQw0GAbJ--0">
          <mxGeometry y="116" width="240" height="26" as="geometry" />
        </mxCell>
        <mxCell id="aQq8TngeYzNc_uCb0u1g-38" value="+ delObject(delObject: ScreenObject)" style="text;align=left;verticalAlign=top;spacingLeft=4;spacingRight=4;overflow=hidden;rotatable=0;points=[[0,0.5],[1,0.5]];portConstraint=eastwest;" vertex="1" parent="zkfFHV4jXpPFQw0GAbJ--0">
          <mxGeometry y="142" width="240" height="26" as="geometry" />
        </mxCell>
        <mxCell id="gmlxUq-wJRHVVtqLA2Y4-15" value="+ Field" style="swimlane;fontStyle=2;align=center;verticalAlign=top;childLayout=stackLayout;horizontal=1;startSize=26;horizontalStack=0;resizeParent=1;resizeLast=0;collapsible=1;marginBottom=0;rounded=0;shadow=0;strokeWidth=1;fillColor=#d5e8d4;strokeColor=#82b366;" parent="WIyWlLk6GJQsqaUBKTNV-1" vertex="1">
          <mxGeometry x="-50" y="1000" width="240" height="200" as="geometry">
            <mxRectangle x="230" y="140" width="160" height="26" as="alternateBounds" />
          </mxGeometry>
        </mxCell>
        <mxCell id="gmlxUq-wJRHVVtqLA2Y4-27" value="- ghost: Ghost" style="text;align=left;verticalAlign=top;spacingLeft=4;spacingRight=4;overflow=hidden;rotatable=0;points=[[0,0.5],[1,0.5]];portConstraint=eastwest;" parent="gmlxUq-wJRHVVtqLA2Y4-15" vertex="1">
          <mxGeometry y="26" width="240" height="26" as="geometry" />
        </mxCell>
        <mxCell id="gmlxUq-wJRHVVtqLA2Y4-23" value="- currentFigure: CurrentFigure " style="text;align=left;verticalAlign=top;spacingLeft=4;spacingRight=4;overflow=hidden;rotatable=0;points=[[0,0.5],[1,0.5]];portConstraint=eastwest;" parent="gmlxUq-wJRHVVtqLA2Y4-15" vertex="1">
          <mxGeometry y="52" width="240" height="26" as="geometry" />
        </mxCell>
        <mxCell id="gmlxUq-wJRHVVtqLA2Y4-16" value="- bloksDown: BlocksDown" style="text;align=left;verticalAlign=top;spacingLeft=4;spacingRight=4;overflow=hidden;rotatable=0;points=[[0,0.5],[1,0.5]];portConstraint=eastwest;" parent="gmlxUq-wJRHVVtqLA2Y4-15" vertex="1">
          <mxGeometry y="78" width="240" height="26" as="geometry" />
        </mxCell>
        <mxCell id="gmlxUq-wJRHVVtqLA2Y4-18" value="" style="line;html=1;strokeWidth=1;align=left;verticalAlign=middle;spacingTop=-1;spacingLeft=3;spacingRight=3;rotatable=0;labelPosition=right;points=[];portConstraint=eastwest;" parent="gmlxUq-wJRHVVtqLA2Y4-15" vertex="1">
          <mxGeometry y="104" width="240" height="8" as="geometry" />
        </mxCell>
        <mxCell id="gmlxUq-wJRHVVtqLA2Y4-19" value="+ Field(bloksD:BlocksDown, &#xa;   ghost: Ghost,&#xa;   currentFigure:CurrentFigure,&#xa;   size: Size)" style="text;align=left;verticalAlign=top;spacingLeft=4;spacingRight=4;overflow=hidden;rotatable=0;points=[[0,0.5],[1,0.5]];portConstraint=eastwest;" parent="gmlxUq-wJRHVVtqLA2Y4-15" vertex="1">
          <mxGeometry y="112" width="240" height="62" as="geometry" />
        </mxCell>
        <mxCell id="gmlxUq-wJRHVVtqLA2Y4-41" value="+ Scores" style="swimlane;fontStyle=2;align=center;verticalAlign=top;childLayout=stackLayout;horizontal=1;startSize=26;horizontalStack=0;resizeParent=1;resizeLast=0;collapsible=1;marginBottom=0;rounded=0;shadow=0;strokeWidth=1;fillColor=#d5e8d4;strokeColor=#82b366;" parent="WIyWlLk6GJQsqaUBKTNV-1" vertex="1">
          <mxGeometry x="-360" y="1313" width="240" height="190" as="geometry">
            <mxRectangle x="230" y="140" width="160" height="26" as="alternateBounds" />
          </mxGeometry>
        </mxCell>
        <mxCell id="gmlxUq-wJRHVVtqLA2Y4-42" value="- score: Int" style="text;align=left;verticalAlign=top;spacingLeft=4;spacingRight=4;overflow=hidden;rotatable=0;points=[[0,0.5],[1,0.5]];portConstraint=eastwest;" parent="gmlxUq-wJRHVVtqLA2Y4-41" vertex="1">
          <mxGeometry y="26" width="240" height="26" as="geometry" />
        </mxCell>
        <mxCell id="aQq8TngeYzNc_uCb0u1g-23" value="- hightScore: HightScore" style="text;align=left;verticalAlign=top;spacingLeft=4;spacingRight=4;overflow=hidden;rotatable=0;points=[[0,0.5],[1,0.5]];portConstraint=eastwest;" vertex="1" parent="gmlxUq-wJRHVVtqLA2Y4-41">
          <mxGeometry y="52" width="240" height="26" as="geometry" />
        </mxCell>
        <mxCell id="gmlxUq-wJRHVVtqLA2Y4-44" value="" style="line;html=1;strokeWidth=1;align=left;verticalAlign=middle;spacingTop=-1;spacingLeft=3;spacingRight=3;rotatable=0;labelPosition=right;points=[];portConstraint=eastwest;" parent="gmlxUq-wJRHVVtqLA2Y4-41" vertex="1">
          <mxGeometry y="78" width="240" height="8" as="geometry" />
        </mxCell>
        <mxCell id="aQq8TngeYzNc_uCb0u1g-24" value="+ Scores(hightScore: HightScore)" style="text;align=left;verticalAlign=top;spacingLeft=4;spacingRight=4;overflow=hidden;rotatable=0;points=[[0,0.5],[1,0.5]];portConstraint=eastwest;" vertex="1" parent="gmlxUq-wJRHVVtqLA2Y4-41">
          <mxGeometry y="86" width="240" height="26" as="geometry" />
        </mxCell>
        <mxCell id="gmlxUq-wJRHVVtqLA2Y4-45" value="+ setScores(newScore: Int)" style="text;align=left;verticalAlign=top;spacingLeft=4;spacingRight=4;overflow=hidden;rotatable=0;points=[[0,0.5],[1,0.5]];portConstraint=eastwest;" parent="gmlxUq-wJRHVVtqLA2Y4-41" vertex="1">
          <mxGeometry y="112" width="240" height="26" as="geometry" />
        </mxCell>
        <mxCell id="gmlxUq-wJRHVVtqLA2Y4-46" value="+ getScore() : Int" style="text;align=left;verticalAlign=top;spacingLeft=4;spacingRight=4;overflow=hidden;rotatable=0;points=[[0,0.5],[1,0.5]];portConstraint=eastwest;" parent="gmlxUq-wJRHVVtqLA2Y4-41" vertex="1">
          <mxGeometry y="138" width="240" height="26" as="geometry" />
        </mxCell>
        <mxCell id="gmlxUq-wJRHVVtqLA2Y4-50" value="+changeHightScore (score: Int)" style="text;align=left;verticalAlign=top;spacingLeft=4;spacingRight=4;overflow=hidden;rotatable=0;points=[[0,0.5],[1,0.5]];portConstraint=eastwest;" parent="gmlxUq-wJRHVVtqLA2Y4-41" vertex="1">
          <mxGeometry y="164" width="240" height="26" as="geometry" />
        </mxCell>
        <mxCell id="jW0DkB4AbIYyDmSMOtam-0" value="+ Figure" style="swimlane;fontStyle=2;align=center;verticalAlign=top;childLayout=stackLayout;horizontal=1;startSize=26;horizontalStack=0;resizeParent=1;resizeLast=0;collapsible=1;marginBottom=0;rounded=0;shadow=0;strokeWidth=1;fillColor=#d5e8d4;strokeColor=#82b366;" parent="WIyWlLk6GJQsqaUBKTNV-1" vertex="1">
          <mxGeometry x="-110" y="425" width="240" height="220" as="geometry">
            <mxRectangle x="230" y="140" width="160" height="26" as="alternateBounds" />
          </mxGeometry>
        </mxCell>
        <mxCell id="jW0DkB4AbIYyDmSMOtam-2" value="- name: String" style="text;align=left;verticalAlign=top;spacingLeft=4;spacingRight=4;overflow=hidden;rotatable=0;points=[[0,0.5],[1,0.5]];portConstraint=eastwest;rounded=0;shadow=0;html=0;" parent="jW0DkB4AbIYyDmSMOtam-0" vertex="1">
          <mxGeometry y="26" width="240" height="26" as="geometry" />
        </mxCell>
        <mxCell id="aQq8TngeYzNc_uCb0u1g-56" value="- figure: Offset [1..4]" style="text;align=left;verticalAlign=top;spacingLeft=4;spacingRight=4;overflow=hidden;rotatable=0;points=[[0,0.5],[1,0.5]];portConstraint=eastwest;rounded=0;shadow=0;html=0;" vertex="1" parent="jW0DkB4AbIYyDmSMOtam-0">
          <mxGeometry y="52" width="240" height="26" as="geometry" />
        </mxCell>
        <mxCell id="jW0DkB4AbIYyDmSMOtam-3" value="" style="line;html=1;strokeWidth=1;align=left;verticalAlign=middle;spacingTop=-1;spacingLeft=3;spacingRight=3;rotatable=0;labelPosition=right;points=[];portConstraint=eastwest;" parent="jW0DkB4AbIYyDmSMOtam-0" vertex="1">
          <mxGeometry y="78" width="240" height="8" as="geometry" />
        </mxCell>
        <mxCell id="jW0DkB4AbIYyDmSMOtam-4" value="+ Figure (name: String, figure: Offset)" style="text;align=left;verticalAlign=top;spacingLeft=4;spacingRight=4;overflow=hidden;rotatable=0;points=[[0,0.5],[1,0.5]];portConstraint=eastwest;" parent="jW0DkB4AbIYyDmSMOtam-0" vertex="1">
          <mxGeometry y="86" width="240" height="26" as="geometry" />
        </mxCell>
        <mxCell id="jW0DkB4AbIYyDmSMOtam-5" value="+ getName() : String" style="text;align=left;verticalAlign=top;spacingLeft=4;spacingRight=4;overflow=hidden;rotatable=0;points=[[0,0.5],[1,0.5]];portConstraint=eastwest;" parent="jW0DkB4AbIYyDmSMOtam-0" vertex="1">
          <mxGeometry y="112" width="240" height="26" as="geometry" />
        </mxCell>
        <mxCell id="jW0DkB4AbIYyDmSMOtam-6" value="+ setFigure(newFigure: Offset)" style="text;align=left;verticalAlign=top;spacingLeft=4;spacingRight=4;overflow=hidden;rotatable=0;points=[[0,0.5],[1,0.5]];portConstraint=eastwest;" parent="jW0DkB4AbIYyDmSMOtam-0" vertex="1">
          <mxGeometry y="138" width="240" height="26" as="geometry" />
        </mxCell>
        <mxCell id="aQq8TngeYzNc_uCb0u1g-63" value="+ delFigure(del: Offset)" style="text;align=left;verticalAlign=top;spacingLeft=4;spacingRight=4;overflow=hidden;rotatable=0;points=[[0,0.5],[1,0.5]];portConstraint=eastwest;" vertex="1" parent="jW0DkB4AbIYyDmSMOtam-0">
          <mxGeometry y="164" width="240" height="26" as="geometry" />
        </mxCell>
        <mxCell id="aQq8TngeYzNc_uCb0u1g-64" value="+ getFigure(): Offset" style="text;align=left;verticalAlign=top;spacingLeft=4;spacingRight=4;overflow=hidden;rotatable=0;points=[[0,0.5],[1,0.5]];portConstraint=eastwest;" vertex="1" parent="jW0DkB4AbIYyDmSMOtam-0">
          <mxGeometry y="190" width="240" height="26" as="geometry" />
        </mxCell>
        <mxCell id="jW0DkB4AbIYyDmSMOtam-8" value="+ BlocksDown" style="swimlane;fontStyle=2;align=center;verticalAlign=top;childLayout=stackLayout;horizontal=1;startSize=26;horizontalStack=0;resizeParent=1;resizeLast=0;collapsible=1;marginBottom=0;rounded=0;shadow=0;strokeWidth=1;fillColor=#d5e8d4;strokeColor=#82b366;" parent="WIyWlLk6GJQsqaUBKTNV-1" vertex="1">
          <mxGeometry x="-400" y="1074" width="240" height="190" as="geometry">
            <mxRectangle x="230" y="140" width="160" height="26" as="alternateBounds" />
          </mxGeometry>
        </mxCell>
        <mxCell id="jW0DkB4AbIYyDmSMOtam-9" value="- bloks: Blocks[0..*]" style="text;align=left;verticalAlign=top;spacingLeft=4;spacingRight=4;overflow=hidden;rotatable=0;points=[[0,0.5],[1,0.5]];portConstraint=eastwest;" parent="jW0DkB4AbIYyDmSMOtam-8" vertex="1">
          <mxGeometry y="26" width="240" height="26" as="geometry" />
        </mxCell>
        <mxCell id="jW0DkB4AbIYyDmSMOtam-11" value="" style="line;html=1;strokeWidth=1;align=left;verticalAlign=middle;spacingTop=-1;spacingLeft=3;spacingRight=3;rotatable=0;labelPosition=right;points=[];portConstraint=eastwest;" parent="jW0DkB4AbIYyDmSMOtam-8" vertex="1">
          <mxGeometry y="52" width="240" height="8" as="geometry" />
        </mxCell>
        <mxCell id="aQq8TngeYzNc_uCb0u1g-84" value="+ BlocksDown(size: Size)" style="text;align=left;verticalAlign=top;spacingLeft=4;spacingRight=4;overflow=hidden;rotatable=0;points=[[0,0.5],[1,0.5]];portConstraint=eastwest;" vertex="1" parent="jW0DkB4AbIYyDmSMOtam-8">
          <mxGeometry y="60" width="240" height="26" as="geometry" />
        </mxCell>
        <mxCell id="jW0DkB4AbIYyDmSMOtam-12" value="+ setBlock(newBlok: Bloks)" style="text;align=left;verticalAlign=top;spacingLeft=4;spacingRight=4;overflow=hidden;rotatable=0;points=[[0,0.5],[1,0.5]];portConstraint=eastwest;" parent="jW0DkB4AbIYyDmSMOtam-8" vertex="1">
          <mxGeometry y="86" width="240" height="26" as="geometry" />
        </mxCell>
        <mxCell id="jW0DkB4AbIYyDmSMOtam-13" value="+ getBlocks(): Bloks[0..*]" style="text;align=left;verticalAlign=top;spacingLeft=4;spacingRight=4;overflow=hidden;rotatable=0;points=[[0,0.5],[1,0.5]];portConstraint=eastwest;" parent="jW0DkB4AbIYyDmSMOtam-8" vertex="1">
          <mxGeometry y="112" width="240" height="26" as="geometry" />
        </mxCell>
        <mxCell id="aQq8TngeYzNc_uCb0u1g-85" value="+ delBlock(delBlok: Bloks)" style="text;align=left;verticalAlign=top;spacingLeft=4;spacingRight=4;overflow=hidden;rotatable=0;points=[[0,0.5],[1,0.5]];portConstraint=eastwest;" vertex="1" parent="jW0DkB4AbIYyDmSMOtam-8">
          <mxGeometry y="138" width="240" height="26" as="geometry" />
        </mxCell>
        <mxCell id="jW0DkB4AbIYyDmSMOtam-14" value="+blocksInRow()" style="text;align=left;verticalAlign=top;spacingLeft=4;spacingRight=4;overflow=hidden;rotatable=0;points=[[0,0.5],[1,0.5]];portConstraint=eastwest;" parent="jW0DkB4AbIYyDmSMOtam-8" vertex="1">
          <mxGeometry y="164" width="240" height="26" as="geometry" />
        </mxCell>
        <mxCell id="jW0DkB4AbIYyDmSMOtam-18" value="+ Ghost" style="swimlane;fontStyle=2;align=center;verticalAlign=top;childLayout=stackLayout;horizontal=1;startSize=26;horizontalStack=0;resizeParent=1;resizeLast=0;collapsible=1;marginBottom=0;rounded=0;shadow=0;strokeWidth=1;" parent="WIyWlLk6GJQsqaUBKTNV-1" vertex="1">
          <mxGeometry x="-480" y="670" width="240" height="190" as="geometry">
            <mxRectangle x="230" y="140" width="160" height="26" as="alternateBounds" />
          </mxGeometry>
        </mxCell>
        <mxCell id="jW0DkB4AbIYyDmSMOtam-19" value="- figure: Figure" style="text;align=left;verticalAlign=top;spacingLeft=4;spacingRight=4;overflow=hidden;rotatable=0;points=[[0,0.5],[1,0.5]];portConstraint=eastwest;" parent="jW0DkB4AbIYyDmSMOtam-18" vertex="1">
          <mxGeometry y="26" width="240" height="26" as="geometry" />
        </mxCell>
        <mxCell id="jW0DkB4AbIYyDmSMOtam-20" value="- blocksDown: BloksDown" style="text;align=left;verticalAlign=top;spacingLeft=4;spacingRight=4;overflow=hidden;rotatable=0;points=[[0,0.5],[1,0.5]];portConstraint=eastwest;rounded=0;shadow=0;html=0;" parent="jW0DkB4AbIYyDmSMOtam-18" vertex="1">
          <mxGeometry y="52" width="240" height="26" as="geometry" />
        </mxCell>
        <mxCell id="jW0DkB4AbIYyDmSMOtam-22" value="" style="line;html=1;strokeWidth=1;align=left;verticalAlign=middle;spacingTop=-1;spacingLeft=3;spacingRight=3;rotatable=0;labelPosition=right;points=[];portConstraint=eastwest;" parent="jW0DkB4AbIYyDmSMOtam-18" vertex="1">
          <mxGeometry y="78" width="240" height="8" as="geometry" />
        </mxCell>
        <mxCell id="jW0DkB4AbIYyDmSMOtam-23" value="+ Ghost(figure: Figure, d: BlocksDown)" style="text;align=left;verticalAlign=top;spacingLeft=4;spacingRight=4;overflow=hidden;rotatable=0;points=[[0,0.5],[1,0.5]];portConstraint=eastwest;" parent="jW0DkB4AbIYyDmSMOtam-18" vertex="1">
          <mxGeometry y="86" width="240" height="26" as="geometry" />
        </mxCell>
        <mxCell id="aQq8TngeYzNc_uCb0u1g-88" value="+ setFigure(newFigure: Figure) " style="text;align=left;verticalAlign=top;spacingLeft=4;spacingRight=4;overflow=hidden;rotatable=0;points=[[0,0.5],[1,0.5]];portConstraint=eastwest;" vertex="1" parent="jW0DkB4AbIYyDmSMOtam-18">
          <mxGeometry y="112" width="240" height="26" as="geometry" />
        </mxCell>
        <mxCell id="aQq8TngeYzNc_uCb0u1g-89" value="+ getFigure() : Figure " style="text;align=left;verticalAlign=top;spacingLeft=4;spacingRight=4;overflow=hidden;rotatable=0;points=[[0,0.5],[1,0.5]];portConstraint=eastwest;" vertex="1" parent="jW0DkB4AbIYyDmSMOtam-18">
          <mxGeometry y="138" width="240" height="26" as="geometry" />
        </mxCell>
        <mxCell id="jW0DkB4AbIYyDmSMOtam-28" value="+possiblePosition()" style="text;align=left;verticalAlign=top;spacingLeft=4;spacingRight=4;overflow=hidden;rotatable=0;points=[[0,0.5],[1,0.5]];portConstraint=eastwest;" parent="jW0DkB4AbIYyDmSMOtam-18" vertex="1">
          <mxGeometry y="164" width="240" height="26" as="geometry" />
        </mxCell>
        <mxCell id="jW0DkB4AbIYyDmSMOtam-29" value="+ Offset" style="swimlane;fontStyle=2;align=center;verticalAlign=top;childLayout=stackLayout;horizontal=1;startSize=26;horizontalStack=0;resizeParent=1;resizeLast=0;collapsible=1;marginBottom=0;rounded=0;shadow=0;strokeWidth=1;fillColor=#d5e8d4;strokeColor=#82b366;" parent="WIyWlLk6GJQsqaUBKTNV-1" vertex="1">
          <mxGeometry x="270" y="470" width="240" height="216" as="geometry">
            <mxRectangle x="230" y="140" width="160" height="26" as="alternateBounds" />
          </mxGeometry>
        </mxCell>
        <mxCell id="jW0DkB4AbIYyDmSMOtam-30" value="- typePosition: String" style="text;align=left;verticalAlign=top;spacingLeft=4;spacingRight=4;overflow=hidden;rotatable=0;points=[[0,0.5],[1,0.5]];portConstraint=eastwest;" parent="jW0DkB4AbIYyDmSMOtam-29" vertex="1">
          <mxGeometry y="26" width="240" height="26" as="geometry" />
        </mxCell>
        <mxCell id="jW0DkB4AbIYyDmSMOtam-1" value="- bloks: Blocks[1..*]" style="text;align=left;verticalAlign=top;spacingLeft=4;spacingRight=4;overflow=hidden;rotatable=0;points=[[0,0.5],[1,0.5]];portConstraint=eastwest;" parent="jW0DkB4AbIYyDmSMOtam-29" vertex="1">
          <mxGeometry y="52" width="240" height="26" as="geometry" />
        </mxCell>
        <mxCell id="jW0DkB4AbIYyDmSMOtam-32" value="" style="line;html=1;strokeWidth=1;align=left;verticalAlign=middle;spacingTop=-1;spacingLeft=3;spacingRight=3;rotatable=0;labelPosition=right;points=[];portConstraint=eastwest;" parent="jW0DkB4AbIYyDmSMOtam-29" vertex="1">
          <mxGeometry y="78" width="240" height="8" as="geometry" />
        </mxCell>
        <mxCell id="jW0DkB4AbIYyDmSMOtam-33" value="+Offset (type: String, bloks: Blocks)" style="text;align=left;verticalAlign=top;spacingLeft=4;spacingRight=4;overflow=hidden;rotatable=0;points=[[0,0.5],[1,0.5]];portConstraint=eastwest;" parent="jW0DkB4AbIYyDmSMOtam-29" vertex="1">
          <mxGeometry y="86" width="240" height="26" as="geometry" />
        </mxCell>
        <mxCell id="jW0DkB4AbIYyDmSMOtam-34" value="+getType() : String" style="text;align=left;verticalAlign=top;spacingLeft=4;spacingRight=4;overflow=hidden;rotatable=0;points=[[0,0.5],[1,0.5]];portConstraint=eastwest;" parent="jW0DkB4AbIYyDmSMOtam-29" vertex="1">
          <mxGeometry y="112" width="240" height="26" as="geometry" />
        </mxCell>
        <mxCell id="jW0DkB4AbIYyDmSMOtam-35" value="+ setBloks (newBlok: Blocks)" style="text;align=left;verticalAlign=top;spacingLeft=4;spacingRight=4;overflow=hidden;rotatable=0;points=[[0,0.5],[1,0.5]];portConstraint=eastwest;" parent="jW0DkB4AbIYyDmSMOtam-29" vertex="1">
          <mxGeometry y="138" width="240" height="26" as="geometry" />
        </mxCell>
        <mxCell id="aQq8TngeYzNc_uCb0u1g-61" value="+ getBloks () : Blocks[1..*]" style="text;align=left;verticalAlign=top;spacingLeft=4;spacingRight=4;overflow=hidden;rotatable=0;points=[[0,0.5],[1,0.5]];portConstraint=eastwest;" vertex="1" parent="jW0DkB4AbIYyDmSMOtam-29">
          <mxGeometry y="164" width="240" height="26" as="geometry" />
        </mxCell>
        <mxCell id="jW0DkB4AbIYyDmSMOtam-36" value="+ delBlok (del: Block)" style="text;align=left;verticalAlign=top;spacingLeft=4;spacingRight=4;overflow=hidden;rotatable=0;points=[[0,0.5],[1,0.5]];portConstraint=eastwest;" parent="jW0DkB4AbIYyDmSMOtam-29" vertex="1">
          <mxGeometry y="190" width="240" height="26" as="geometry" />
        </mxCell>
        <mxCell id="jW0DkB4AbIYyDmSMOtam-37" value="+ NextFigure" style="swimlane;fontStyle=2;align=center;verticalAlign=top;childLayout=stackLayout;horizontal=1;startSize=26;horizontalStack=0;resizeParent=1;resizeLast=0;collapsible=1;marginBottom=0;rounded=0;shadow=0;strokeWidth=1;fillColor=#d5e8d4;strokeColor=#82b366;" parent="WIyWlLk6GJQsqaUBKTNV-1" vertex="1">
          <mxGeometry x="-500" y="450" width="240" height="170" as="geometry">
            <mxRectangle x="230" y="140" width="160" height="26" as="alternateBounds" />
          </mxGeometry>
        </mxCell>
        <mxCell id="jW0DkB4AbIYyDmSMOtam-38" value="- figure: Figure" style="text;align=left;verticalAlign=top;spacingLeft=4;spacingRight=4;overflow=hidden;rotatable=0;points=[[0,0.5],[1,0.5]];portConstraint=eastwest;" parent="jW0DkB4AbIYyDmSMOtam-37" vertex="1">
          <mxGeometry y="26" width="240" height="26" as="geometry" />
        </mxCell>
        <mxCell id="jW0DkB4AbIYyDmSMOtam-40" value="" style="line;html=1;strokeWidth=1;align=left;verticalAlign=middle;spacingTop=-1;spacingLeft=3;spacingRight=3;rotatable=0;labelPosition=right;points=[];portConstraint=eastwest;" parent="jW0DkB4AbIYyDmSMOtam-37" vertex="1">
          <mxGeometry y="52" width="240" height="8" as="geometry" />
        </mxCell>
        <mxCell id="jW0DkB4AbIYyDmSMOtam-41" value="+ NextFigure(size:Size, pos:Position)" style="text;align=left;verticalAlign=top;spacingLeft=4;spacingRight=4;overflow=hidden;rotatable=0;points=[[0,0.5],[1,0.5]];portConstraint=eastwest;" parent="jW0DkB4AbIYyDmSMOtam-37" vertex="1">
          <mxGeometry y="60" width="240" height="26" as="geometry" />
        </mxCell>
        <mxCell id="jW0DkB4AbIYyDmSMOtam-42" value="+ setColorAndFirstPosition() " style="text;align=left;verticalAlign=top;spacingLeft=4;spacingRight=4;overflow=hidden;rotatable=0;points=[[0,0.5],[1,0.5]];portConstraint=eastwest;" parent="jW0DkB4AbIYyDmSMOtam-37" vertex="1">
          <mxGeometry y="86" width="240" height="26" as="geometry" />
        </mxCell>
        <mxCell id="aQq8TngeYzNc_uCb0u1g-71" value="+ setFigure(newFigure: Figure) " style="text;align=left;verticalAlign=top;spacingLeft=4;spacingRight=4;overflow=hidden;rotatable=0;points=[[0,0.5],[1,0.5]];portConstraint=eastwest;" vertex="1" parent="jW0DkB4AbIYyDmSMOtam-37">
          <mxGeometry y="112" width="240" height="26" as="geometry" />
        </mxCell>
        <mxCell id="aQq8TngeYzNc_uCb0u1g-72" value="+ getFigure() : Figure " style="text;align=left;verticalAlign=top;spacingLeft=4;spacingRight=4;overflow=hidden;rotatable=0;points=[[0,0.5],[1,0.5]];portConstraint=eastwest;" vertex="1" parent="jW0DkB4AbIYyDmSMOtam-37">
          <mxGeometry y="138" width="240" height="26" as="geometry" />
        </mxCell>
        <mxCell id="jW0DkB4AbIYyDmSMOtam-47" value="+ Color" style="swimlane;fontStyle=2;align=center;verticalAlign=top;childLayout=stackLayout;horizontal=1;startSize=26;horizontalStack=0;resizeParent=1;resizeLast=0;collapsible=1;marginBottom=0;rounded=0;shadow=0;strokeWidth=1;fillColor=#d5e8d4;strokeColor=#82b366;" parent="WIyWlLk6GJQsqaUBKTNV-1" vertex="1">
          <mxGeometry x="540" y="870" width="240" height="190" as="geometry">
            <mxRectangle x="230" y="140" width="160" height="26" as="alternateBounds" />
          </mxGeometry>
        </mxCell>
        <mxCell id="jW0DkB4AbIYyDmSMOtam-48" value="- name: String" style="text;align=left;verticalAlign=top;spacingLeft=4;spacingRight=4;overflow=hidden;rotatable=0;points=[[0,0.5],[1,0.5]];portConstraint=eastwest;" parent="jW0DkB4AbIYyDmSMOtam-47" vertex="1">
          <mxGeometry y="26" width="240" height="26" as="geometry" />
        </mxCell>
        <mxCell id="jW0DkB4AbIYyDmSMOtam-49" value="- red: Int" style="text;align=left;verticalAlign=top;spacingLeft=4;spacingRight=4;overflow=hidden;rotatable=0;points=[[0,0.5],[1,0.5]];portConstraint=eastwest;rounded=0;shadow=0;html=0;" parent="jW0DkB4AbIYyDmSMOtam-47" vertex="1">
          <mxGeometry y="52" width="240" height="26" as="geometry" />
        </mxCell>
        <mxCell id="jW0DkB4AbIYyDmSMOtam-50" value="- green: Int" style="text;align=left;verticalAlign=top;spacingLeft=4;spacingRight=4;overflow=hidden;rotatable=0;points=[[0,0.5],[1,0.5]];portConstraint=eastwest;rounded=0;shadow=0;html=0;" parent="jW0DkB4AbIYyDmSMOtam-47" vertex="1">
          <mxGeometry y="78" width="240" height="26" as="geometry" />
        </mxCell>
        <mxCell id="aQq8TngeYzNc_uCb0u1g-14" value="- blue: Int" style="text;align=left;verticalAlign=top;spacingLeft=4;spacingRight=4;overflow=hidden;rotatable=0;points=[[0,0.5],[1,0.5]];portConstraint=eastwest;rounded=0;shadow=0;html=0;" vertex="1" parent="jW0DkB4AbIYyDmSMOtam-47">
          <mxGeometry y="104" width="240" height="26" as="geometry" />
        </mxCell>
        <mxCell id="jW0DkB4AbIYyDmSMOtam-51" value="" style="line;html=1;strokeWidth=1;align=left;verticalAlign=middle;spacingTop=-1;spacingLeft=3;spacingRight=3;rotatable=0;labelPosition=right;points=[];portConstraint=eastwest;" parent="jW0DkB4AbIYyDmSMOtam-47" vertex="1">
          <mxGeometry y="130" width="240" height="8" as="geometry" />
        </mxCell>
        <mxCell id="jW0DkB4AbIYyDmSMOtam-52" value="+ Color(name: String, r: Int, g: Int, b:Int)" style="text;align=left;verticalAlign=top;spacingLeft=4;spacingRight=4;overflow=hidden;rotatable=0;points=[[0,0.5],[1,0.5]];portConstraint=eastwest;" parent="jW0DkB4AbIYyDmSMOtam-47" vertex="1">
          <mxGeometry y="138" width="240" height="26" as="geometry" />
        </mxCell>
        <mxCell id="jW0DkB4AbIYyDmSMOtam-53" value="+ getColor() : Int" style="text;align=left;verticalAlign=top;spacingLeft=4;spacingRight=4;overflow=hidden;rotatable=0;points=[[0,0.5],[1,0.5]];portConstraint=eastwest;" parent="jW0DkB4AbIYyDmSMOtam-47" vertex="1">
          <mxGeometry y="164" width="240" height="26" as="geometry" />
        </mxCell>
        <mxCell id="jW0DkB4AbIYyDmSMOtam-66" value="+ Position" style="swimlane;fontStyle=2;align=center;verticalAlign=top;childLayout=stackLayout;horizontal=1;startSize=26;horizontalStack=0;resizeParent=1;resizeLast=0;collapsible=1;marginBottom=0;rounded=0;shadow=0;strokeWidth=1;fillColor=#d5e8d4;strokeColor=#82b366;" parent="WIyWlLk6GJQsqaUBKTNV-1" vertex="1">
          <mxGeometry x="1170" y="544" width="240" height="220" as="geometry">
            <mxRectangle x="230" y="140" width="160" height="26" as="alternateBounds" />
          </mxGeometry>
        </mxCell>
        <mxCell id="jW0DkB4AbIYyDmSMOtam-67" value="-xCoordinate: Int" style="text;align=left;verticalAlign=top;spacingLeft=4;spacingRight=4;overflow=hidden;rotatable=0;points=[[0,0.5],[1,0.5]];portConstraint=eastwest;" parent="jW0DkB4AbIYyDmSMOtam-66" vertex="1">
          <mxGeometry y="26" width="240" height="26" as="geometry" />
        </mxCell>
        <mxCell id="jW0DkB4AbIYyDmSMOtam-68" value="-yCoordinate: Int" style="text;align=left;verticalAlign=top;spacingLeft=4;spacingRight=4;overflow=hidden;rotatable=0;points=[[0,0.5],[1,0.5]];portConstraint=eastwest;rounded=0;shadow=0;html=0;" parent="jW0DkB4AbIYyDmSMOtam-66" vertex="1">
          <mxGeometry y="52" width="240" height="26" as="geometry" />
        </mxCell>
        <mxCell id="jW0DkB4AbIYyDmSMOtam-69" value="" style="line;html=1;strokeWidth=1;align=left;verticalAlign=middle;spacingTop=-1;spacingLeft=3;spacingRight=3;rotatable=0;labelPosition=right;points=[];portConstraint=eastwest;" parent="jW0DkB4AbIYyDmSMOtam-66" vertex="1">
          <mxGeometry y="78" width="240" height="8" as="geometry" />
        </mxCell>
        <mxCell id="jW0DkB4AbIYyDmSMOtam-70" value="+ Position(x: Int, y: Int)" style="text;align=left;verticalAlign=top;spacingLeft=4;spacingRight=4;overflow=hidden;rotatable=0;points=[[0,0.5],[1,0.5]];portConstraint=eastwest;" parent="jW0DkB4AbIYyDmSMOtam-66" vertex="1">
          <mxGeometry y="86" width="240" height="26" as="geometry" />
        </mxCell>
        <mxCell id="jW0DkB4AbIYyDmSMOtam-71" value="+ getX() : Int" style="text;align=left;verticalAlign=top;spacingLeft=4;spacingRight=4;overflow=hidden;rotatable=0;points=[[0,0.5],[1,0.5]];portConstraint=eastwest;" parent="jW0DkB4AbIYyDmSMOtam-66" vertex="1">
          <mxGeometry y="112" width="240" height="26" as="geometry" />
        </mxCell>
        <mxCell id="aQq8TngeYzNc_uCb0u1g-48" value="+ getY() : Int" style="text;align=left;verticalAlign=top;spacingLeft=4;spacingRight=4;overflow=hidden;rotatable=0;points=[[0,0.5],[1,0.5]];portConstraint=eastwest;" vertex="1" parent="jW0DkB4AbIYyDmSMOtam-66">
          <mxGeometry y="138" width="240" height="26" as="geometry" />
        </mxCell>
        <mxCell id="jW0DkB4AbIYyDmSMOtam-72" value="+ setX(newX: Int) " style="text;align=left;verticalAlign=top;spacingLeft=4;spacingRight=4;overflow=hidden;rotatable=0;points=[[0,0.5],[1,0.5]];portConstraint=eastwest;" parent="jW0DkB4AbIYyDmSMOtam-66" vertex="1">
          <mxGeometry y="164" width="240" height="26" as="geometry" />
        </mxCell>
        <mxCell id="aQq8TngeYzNc_uCb0u1g-49" value="+ setY(newY: Int) " style="text;align=left;verticalAlign=top;spacingLeft=4;spacingRight=4;overflow=hidden;rotatable=0;points=[[0,0.5],[1,0.5]];portConstraint=eastwest;" vertex="1" parent="jW0DkB4AbIYyDmSMOtam-66">
          <mxGeometry y="190" width="240" height="26" as="geometry" />
        </mxCell>
        <mxCell id="jW0DkB4AbIYyDmSMOtam-76" value="+ HightScore" style="swimlane;fontStyle=2;align=center;verticalAlign=top;childLayout=stackLayout;horizontal=1;startSize=26;horizontalStack=0;resizeParent=1;resizeLast=0;collapsible=1;marginBottom=0;rounded=0;shadow=0;strokeWidth=1;fillColor=#d5e8d4;strokeColor=#82b366;" parent="WIyWlLk6GJQsqaUBKTNV-1" vertex="1">
          <mxGeometry x="10" y="1338.5" width="240" height="190" as="geometry">
            <mxRectangle x="230" y="140" width="160" height="26" as="alternateBounds" />
          </mxGeometry>
        </mxCell>
        <mxCell id="jW0DkB4AbIYyDmSMOtam-77" value="- record: Int" style="text;align=left;verticalAlign=top;spacingLeft=4;spacingRight=4;overflow=hidden;rotatable=0;points=[[0,0.5],[1,0.5]];portConstraint=eastwest;" parent="jW0DkB4AbIYyDmSMOtam-76" vertex="1">
          <mxGeometry y="26" width="240" height="26" as="geometry" />
        </mxCell>
        <mxCell id="aQq8TngeYzNc_uCb0u1g-25" value="- size: Size" style="text;align=left;verticalAlign=top;spacingLeft=4;spacingRight=4;overflow=hidden;rotatable=0;points=[[0,0.5],[1,0.5]];portConstraint=eastwest;" vertex="1" parent="jW0DkB4AbIYyDmSMOtam-76">
          <mxGeometry y="52" width="240" height="26" as="geometry" />
        </mxCell>
        <mxCell id="jW0DkB4AbIYyDmSMOtam-80" value="" style="line;html=1;strokeWidth=1;align=left;verticalAlign=middle;spacingTop=-1;spacingLeft=3;spacingRight=3;rotatable=0;labelPosition=right;points=[];portConstraint=eastwest;" parent="jW0DkB4AbIYyDmSMOtam-76" vertex="1">
          <mxGeometry y="78" width="240" height="8" as="geometry" />
        </mxCell>
        <mxCell id="jW0DkB4AbIYyDmSMOtam-81" value="+ setRecord(newRecord: Int)" style="text;align=left;verticalAlign=top;spacingLeft=4;spacingRight=4;overflow=hidden;rotatable=0;points=[[0,0.5],[1,0.5]];portConstraint=eastwest;" parent="jW0DkB4AbIYyDmSMOtam-76" vertex="1">
          <mxGeometry y="86" width="240" height="26" as="geometry" />
        </mxCell>
        <mxCell id="jW0DkB4AbIYyDmSMOtam-82" value="+ getRecord() : Int" style="text;align=left;verticalAlign=top;spacingLeft=4;spacingRight=4;overflow=hidden;rotatable=0;points=[[0,0.5],[1,0.5]];portConstraint=eastwest;" parent="jW0DkB4AbIYyDmSMOtam-76" vertex="1">
          <mxGeometry y="112" width="240" height="26" as="geometry" />
        </mxCell>
        <mxCell id="aQq8TngeYzNc_uCb0u1g-26" value="+ setSize(size: Size)" style="text;align=left;verticalAlign=top;spacingLeft=4;spacingRight=4;overflow=hidden;rotatable=0;points=[[0,0.5],[1,0.5]];portConstraint=eastwest;" vertex="1" parent="jW0DkB4AbIYyDmSMOtam-76">
          <mxGeometry y="138" width="240" height="26" as="geometry" />
        </mxCell>
        <mxCell id="aQq8TngeYzNc_uCb0u1g-27" value="+ getSize() : Size" style="text;align=left;verticalAlign=top;spacingLeft=4;spacingRight=4;overflow=hidden;rotatable=0;points=[[0,0.5],[1,0.5]];portConstraint=eastwest;" vertex="1" parent="jW0DkB4AbIYyDmSMOtam-76">
          <mxGeometry y="164" width="240" height="26" as="geometry" />
        </mxCell>
        <mxCell id="jW0DkB4AbIYyDmSMOtam-87" value="+ Size" style="swimlane;fontStyle=2;align=center;verticalAlign=top;childLayout=stackLayout;horizontal=1;startSize=26;horizontalStack=0;resizeParent=1;resizeLast=0;collapsible=1;marginBottom=0;rounded=0;shadow=0;strokeWidth=1;fillColor=#d5e8d4;strokeColor=#82b366;" parent="WIyWlLk6GJQsqaUBKTNV-1" vertex="1">
          <mxGeometry x="1050" y="960" width="240" height="294" as="geometry">
            <mxRectangle x="230" y="140" width="160" height="26" as="alternateBounds" />
          </mxGeometry>
        </mxCell>
        <mxCell id="aQq8TngeYzNc_uCb0u1g-8" value="- type: String" style="text;align=left;verticalAlign=top;spacingLeft=4;spacingRight=4;overflow=hidden;rotatable=0;points=[[0,0.5],[1,0.5]];portConstraint=eastwest;" vertex="1" parent="jW0DkB4AbIYyDmSMOtam-87">
          <mxGeometry y="26" width="240" height="26" as="geometry" />
        </mxCell>
        <mxCell id="jW0DkB4AbIYyDmSMOtam-88" value="- height: Int" style="text;align=left;verticalAlign=top;spacingLeft=4;spacingRight=4;overflow=hidden;rotatable=0;points=[[0,0.5],[1,0.5]];portConstraint=eastwest;" parent="jW0DkB4AbIYyDmSMOtam-87" vertex="1">
          <mxGeometry y="52" width="240" height="26" as="geometry" />
        </mxCell>
        <mxCell id="jW0DkB4AbIYyDmSMOtam-89" value="- width: Int" style="text;align=left;verticalAlign=top;spacingLeft=4;spacingRight=4;overflow=hidden;rotatable=0;points=[[0,0.5],[1,0.5]];portConstraint=eastwest;rounded=0;shadow=0;html=0;" parent="jW0DkB4AbIYyDmSMOtam-87" vertex="1">
          <mxGeometry y="78" width="240" height="26" as="geometry" />
        </mxCell>
        <mxCell id="jW0DkB4AbIYyDmSMOtam-90" value="" style="line;html=1;strokeWidth=1;align=left;verticalAlign=middle;spacingTop=-1;spacingLeft=3;spacingRight=3;rotatable=0;labelPosition=right;points=[];portConstraint=eastwest;" parent="jW0DkB4AbIYyDmSMOtam-87" vertex="1">
          <mxGeometry y="104" width="240" height="8" as="geometry" />
        </mxCell>
        <mxCell id="aQq8TngeYzNc_uCb0u1g-4" value="+ Size(type:String, height: Int, width: Int)" style="text;align=left;verticalAlign=top;spacingLeft=4;spacingRight=4;overflow=hidden;rotatable=0;points=[[0,0.5],[1,0.5]];portConstraint=eastwest;" vertex="1" parent="jW0DkB4AbIYyDmSMOtam-87">
          <mxGeometry y="112" width="240" height="26" as="geometry" />
        </mxCell>
        <mxCell id="jW0DkB4AbIYyDmSMOtam-91" value="setType(newType: String) " style="text;align=left;verticalAlign=top;spacingLeft=4;spacingRight=4;overflow=hidden;rotatable=0;points=[[0,0.5],[1,0.5]];portConstraint=eastwest;" parent="jW0DkB4AbIYyDmSMOtam-87" vertex="1">
          <mxGeometry y="138" width="240" height="26" as="geometry" />
        </mxCell>
        <mxCell id="aQq8TngeYzNc_uCb0u1g-9" value="getType() : String" style="text;align=left;verticalAlign=top;spacingLeft=4;spacingRight=4;overflow=hidden;rotatable=0;points=[[0,0.5],[1,0.5]];portConstraint=eastwest;" vertex="1" parent="jW0DkB4AbIYyDmSMOtam-87">
          <mxGeometry y="164" width="240" height="26" as="geometry" />
        </mxCell>
        <mxCell id="aQq8TngeYzNc_uCb0u1g-10" value="setHeight(newHeight: Int) " style="text;align=left;verticalAlign=top;spacingLeft=4;spacingRight=4;overflow=hidden;rotatable=0;points=[[0,0.5],[1,0.5]];portConstraint=eastwest;" vertex="1" parent="jW0DkB4AbIYyDmSMOtam-87">
          <mxGeometry y="190" width="240" height="26" as="geometry" />
        </mxCell>
        <mxCell id="jW0DkB4AbIYyDmSMOtam-92" value="getHeight() : Int" style="text;align=left;verticalAlign=top;spacingLeft=4;spacingRight=4;overflow=hidden;rotatable=0;points=[[0,0.5],[1,0.5]];portConstraint=eastwest;" parent="jW0DkB4AbIYyDmSMOtam-87" vertex="1">
          <mxGeometry y="216" width="240" height="26" as="geometry" />
        </mxCell>
        <mxCell id="jW0DkB4AbIYyDmSMOtam-93" value="setWidth(newWidth: Int) " style="text;align=left;verticalAlign=top;spacingLeft=4;spacingRight=4;overflow=hidden;rotatable=0;points=[[0,0.5],[1,0.5]];portConstraint=eastwest;" parent="jW0DkB4AbIYyDmSMOtam-87" vertex="1">
          <mxGeometry y="242" width="240" height="26" as="geometry" />
        </mxCell>
        <mxCell id="jW0DkB4AbIYyDmSMOtam-94" value="getWidth() : Int" style="text;align=left;verticalAlign=top;spacingLeft=4;spacingRight=4;overflow=hidden;rotatable=0;points=[[0,0.5],[1,0.5]];portConstraint=eastwest;" parent="jW0DkB4AbIYyDmSMOtam-87" vertex="1">
          <mxGeometry y="268" width="240" height="26" as="geometry" />
        </mxCell>
        <mxCell id="jW0DkB4AbIYyDmSMOtam-95" value="+ Blocks" style="swimlane;fontStyle=2;align=center;verticalAlign=top;childLayout=stackLayout;horizontal=1;startSize=26;horizontalStack=0;resizeParent=1;resizeLast=0;collapsible=1;marginBottom=0;rounded=0;shadow=0;strokeWidth=1;fillColor=#d5e8d4;strokeColor=#82b366;" parent="WIyWlLk6GJQsqaUBKTNV-1" vertex="1">
          <mxGeometry x="640" y="520" width="240" height="244" as="geometry">
            <mxRectangle x="230" y="140" width="160" height="26" as="alternateBounds" />
          </mxGeometry>
        </mxCell>
        <mxCell id="jW0DkB4AbIYyDmSMOtam-97" value="- position: Position" style="text;align=left;verticalAlign=top;spacingLeft=4;spacingRight=4;overflow=hidden;rotatable=0;points=[[0,0.5],[1,0.5]];portConstraint=eastwest;rounded=0;shadow=0;html=0;" parent="jW0DkB4AbIYyDmSMOtam-95" vertex="1">
          <mxGeometry y="26" width="240" height="26" as="geometry" />
        </mxCell>
        <mxCell id="jW0DkB4AbIYyDmSMOtam-96" value="- size: Size" style="text;align=left;verticalAlign=top;spacingLeft=4;spacingRight=4;overflow=hidden;rotatable=0;points=[[0,0.5],[1,0.5]];portConstraint=eastwest;" parent="jW0DkB4AbIYyDmSMOtam-95" vertex="1">
          <mxGeometry y="52" width="240" height="26" as="geometry" />
        </mxCell>
        <mxCell id="aQq8TngeYzNc_uCb0u1g-13" value="- color: Color" style="text;align=left;verticalAlign=top;spacingLeft=4;spacingRight=4;overflow=hidden;rotatable=0;points=[[0,0.5],[1,0.5]];portConstraint=eastwest;rounded=0;shadow=0;html=0;" vertex="1" parent="jW0DkB4AbIYyDmSMOtam-95">
          <mxGeometry y="78" width="240" height="26" as="geometry" />
        </mxCell>
        <mxCell id="jW0DkB4AbIYyDmSMOtam-98" value="" style="line;html=1;strokeWidth=1;align=left;verticalAlign=middle;spacingTop=-1;spacingLeft=3;spacingRight=3;rotatable=0;labelPosition=right;points=[];portConstraint=eastwest;" parent="jW0DkB4AbIYyDmSMOtam-95" vertex="1">
          <mxGeometry y="104" width="240" height="8" as="geometry" />
        </mxCell>
        <mxCell id="jW0DkB4AbIYyDmSMOtam-99" value="Blocks(size:Size)" style="text;align=left;verticalAlign=top;spacingLeft=4;spacingRight=4;overflow=hidden;rotatable=0;points=[[0,0.5],[1,0.5]];portConstraint=eastwest;" parent="jW0DkB4AbIYyDmSMOtam-95" vertex="1">
          <mxGeometry y="112" width="240" height="28" as="geometry" />
        </mxCell>
        <mxCell id="aQq8TngeYzNc_uCb0u1g-57" value="+ setPosition(pos: Position)" style="text;align=left;verticalAlign=top;spacingLeft=4;spacingRight=4;overflow=hidden;rotatable=0;points=[[0,0.5],[1,0.5]];portConstraint=eastwest;" vertex="1" parent="jW0DkB4AbIYyDmSMOtam-95">
          <mxGeometry y="140" width="240" height="26" as="geometry" />
        </mxCell>
        <mxCell id="aQq8TngeYzNc_uCb0u1g-58" value="+ getPosition() : Position" style="text;align=left;verticalAlign=top;spacingLeft=4;spacingRight=4;overflow=hidden;rotatable=0;points=[[0,0.5],[1,0.5]];portConstraint=eastwest;" vertex="1" parent="jW0DkB4AbIYyDmSMOtam-95">
          <mxGeometry y="166" width="240" height="26" as="geometry" />
        </mxCell>
        <mxCell id="aQq8TngeYzNc_uCb0u1g-65" value="+ setColor(color: Color)" style="text;align=left;verticalAlign=top;spacingLeft=4;spacingRight=4;overflow=hidden;rotatable=0;points=[[0,0.5],[1,0.5]];portConstraint=eastwest;" vertex="1" parent="jW0DkB4AbIYyDmSMOtam-95">
          <mxGeometry y="192" width="240" height="26" as="geometry" />
        </mxCell>
        <mxCell id="aQq8TngeYzNc_uCb0u1g-66" value="+ getColor() : Color" style="text;align=left;verticalAlign=top;spacingLeft=4;spacingRight=4;overflow=hidden;rotatable=0;points=[[0,0.5],[1,0.5]];portConstraint=eastwest;" vertex="1" parent="jW0DkB4AbIYyDmSMOtam-95">
          <mxGeometry y="218" width="240" height="26" as="geometry" />
        </mxCell>
        <mxCell id="jW0DkB4AbIYyDmSMOtam-105" value="Game" style="swimlane;fontStyle=2;align=center;verticalAlign=top;childLayout=stackLayout;horizontal=1;startSize=26;horizontalStack=0;resizeParent=1;resizeLast=0;collapsible=1;marginBottom=0;rounded=0;shadow=0;strokeWidth=1;fillColor=#d5e8d4;strokeColor=#82b366;" parent="WIyWlLk6GJQsqaUBKTNV-1" vertex="1">
          <mxGeometry x="370" y="1140" width="240" height="91" as="geometry">
            <mxRectangle x="230" y="140" width="160" height="26" as="alternateBounds" />
          </mxGeometry>
        </mxCell>
        <mxCell id="jW0DkB4AbIYyDmSMOtam-109" value="" style="line;html=1;strokeWidth=1;align=left;verticalAlign=middle;spacingTop=-1;spacingLeft=3;spacingRight=3;rotatable=0;labelPosition=right;points=[];portConstraint=eastwest;" parent="jW0DkB4AbIYyDmSMOtam-105" vertex="1">
          <mxGeometry y="26" width="240" height="8" as="geometry" />
        </mxCell>
        <mxCell id="aQq8TngeYzNc_uCb0u1g-1" value="+ showSetting(setting: Setting)" style="text;align=left;verticalAlign=top;spacingLeft=4;spacingRight=4;overflow=hidden;rotatable=0;points=[[0,0.5],[1,0.5]];portConstraint=eastwest;" vertex="1" parent="jW0DkB4AbIYyDmSMOtam-105">
          <mxGeometry y="34" width="240" height="26" as="geometry" />
        </mxCell>
        <mxCell id="jW0DkB4AbIYyDmSMOtam-115" value="+ showScreen(screen: Screen)" style="text;align=left;verticalAlign=top;spacingLeft=4;spacingRight=4;overflow=hidden;rotatable=0;points=[[0,0.5],[1,0.5]];portConstraint=eastwest;" parent="jW0DkB4AbIYyDmSMOtam-105" vertex="1">
          <mxGeometry y="60" width="240" height="26" as="geometry" />
        </mxCell>
        <mxCell id="jW0DkB4AbIYyDmSMOtam-116" value="Setting" style="swimlane;fontStyle=2;align=center;verticalAlign=top;childLayout=stackLayout;horizontal=1;startSize=26;horizontalStack=0;resizeParent=1;resizeLast=0;collapsible=1;marginBottom=0;rounded=0;shadow=0;strokeWidth=1;fillColor=#d5e8d4;strokeColor=#82b366;" parent="WIyWlLk6GJQsqaUBKTNV-1" vertex="1">
          <mxGeometry x="790" y="1326" width="240" height="164" as="geometry">
            <mxRectangle x="230" y="140" width="160" height="26" as="alternateBounds" />
          </mxGeometry>
        </mxCell>
        <mxCell id="jW0DkB4AbIYyDmSMOtam-117" value="- sizeObject: Size [1..*] " style="text;align=left;verticalAlign=top;spacingLeft=4;spacingRight=4;overflow=hidden;rotatable=0;points=[[0,0.5],[1,0.5]];portConstraint=eastwest;" parent="jW0DkB4AbIYyDmSMOtam-116" vertex="1">
          <mxGeometry y="26" width="240" height="26" as="geometry" />
        </mxCell>
        <mxCell id="jW0DkB4AbIYyDmSMOtam-120" value="" style="line;html=1;strokeWidth=1;align=left;verticalAlign=middle;spacingTop=-1;spacingLeft=3;spacingRight=3;rotatable=0;labelPosition=right;points=[];portConstraint=eastwest;" parent="jW0DkB4AbIYyDmSMOtam-116" vertex="1">
          <mxGeometry y="52" width="240" height="8" as="geometry" />
        </mxCell>
        <mxCell id="jW0DkB4AbIYyDmSMOtam-121" value="+ Setting (sizeObject: Size)" style="text;align=left;verticalAlign=top;spacingLeft=4;spacingRight=4;overflow=hidden;rotatable=0;points=[[0,0.5],[1,0.5]];portConstraint=eastwest;" parent="jW0DkB4AbIYyDmSMOtam-116" vertex="1">
          <mxGeometry y="60" width="240" height="26" as="geometry" />
        </mxCell>
        <mxCell id="aQq8TngeYzNc_uCb0u1g-7" value="+ SetObject (sizeObject: Size)" style="text;align=left;verticalAlign=top;spacingLeft=4;spacingRight=4;overflow=hidden;rotatable=0;points=[[0,0.5],[1,0.5]];portConstraint=eastwest;" vertex="1" parent="jW0DkB4AbIYyDmSMOtam-116">
          <mxGeometry y="86" width="240" height="26" as="geometry" />
        </mxCell>
        <mxCell id="aQq8TngeYzNc_uCb0u1g-11" value="+ deleteObject (sizeObject: Size)" style="text;align=left;verticalAlign=top;spacingLeft=4;spacingRight=4;overflow=hidden;rotatable=0;points=[[0,0.5],[1,0.5]];portConstraint=eastwest;" vertex="1" parent="jW0DkB4AbIYyDmSMOtam-116">
          <mxGeometry y="112" width="240" height="26" as="geometry" />
        </mxCell>
        <mxCell id="jW0DkB4AbIYyDmSMOtam-123" value="+ changeSize()" style="text;align=left;verticalAlign=top;spacingLeft=4;spacingRight=4;overflow=hidden;rotatable=0;points=[[0,0.5],[1,0.5]];portConstraint=eastwest;" parent="jW0DkB4AbIYyDmSMOtam-116" vertex="1">
          <mxGeometry y="138" width="240" height="26" as="geometry" />
        </mxCell>
        <mxCell id="aQq8TngeYzNc_uCb0u1g-2" value="Use" style="endArrow=open;endSize=12;dashed=1;html=1;rounded=0;exitX=1;exitY=0.5;exitDx=0;exitDy=0;entryX=0.001;entryY=0.069;entryDx=0;entryDy=0;entryPerimeter=0;" edge="1" parent="WIyWlLk6GJQsqaUBKTNV-1" source="aQq8TngeYzNc_uCb0u1g-1" target="jW0DkB4AbIYyDmSMOtam-116">
          <mxGeometry width="160" relative="1" as="geometry">
            <mxPoint x="700" y="1480" as="sourcePoint" />
            <mxPoint x="860" y="1480" as="targetPoint" />
            <Array as="points">
              <mxPoint x="740" y="1187" />
              <mxPoint x="740" y="1337" />
            </Array>
          </mxGeometry>
        </mxCell>
        <mxCell id="aQq8TngeYzNc_uCb0u1g-3" value="Use" style="endArrow=open;endSize=12;dashed=1;html=1;rounded=0;exitX=1;exitY=0.5;exitDx=0;exitDy=0;entryX=0.75;entryY=0;entryDx=0;entryDy=0;" edge="1" parent="WIyWlLk6GJQsqaUBKTNV-1" source="jW0DkB4AbIYyDmSMOtam-115" target="zkfFHV4jXpPFQw0GAbJ--0">
          <mxGeometry width="160" relative="1" as="geometry">
            <mxPoint x="480" y="1504" as="sourcePoint" />
            <mxPoint x="640" y="1370" as="targetPoint" />
            <Array as="points">
              <mxPoint x="680" y="1213" />
              <mxPoint x="680" y="1300" />
              <mxPoint x="600" y="1300" />
            </Array>
          </mxGeometry>
        </mxCell>
        <mxCell id="aQq8TngeYzNc_uCb0u1g-6" value="" style="endArrow=diamondThin;endFill=0;endSize=24;html=1;rounded=0;entryX=1;entryY=0.5;entryDx=0;entryDy=0;exitX=0.547;exitY=1.138;exitDx=0;exitDy=0;exitPerimeter=0;" edge="1" parent="WIyWlLk6GJQsqaUBKTNV-1" source="jW0DkB4AbIYyDmSMOtam-94" target="jW0DkB4AbIYyDmSMOtam-117">
          <mxGeometry width="160" relative="1" as="geometry">
            <mxPoint x="1090" y="1350" as="sourcePoint" />
            <mxPoint x="1250" y="1350" as="targetPoint" />
            <Array as="points">
              <mxPoint x="1181" y="1365" />
            </Array>
          </mxGeometry>
        </mxCell>
        <mxCell id="aQq8TngeYzNc_uCb0u1g-15" value="" style="endArrow=open;endFill=1;endSize=12;html=1;rounded=0;exitX=1;exitY=0.5;exitDx=0;exitDy=0;entryX=1.003;entryY=0.083;entryDx=0;entryDy=0;entryPerimeter=0;" edge="1" parent="WIyWlLk6GJQsqaUBKTNV-1" source="aQq8TngeYzNc_uCb0u1g-13" target="jW0DkB4AbIYyDmSMOtam-47">
          <mxGeometry width="160" relative="1" as="geometry">
            <mxPoint x="670" y="980" as="sourcePoint" />
            <mxPoint x="830" y="980" as="targetPoint" />
            <Array as="points">
              <mxPoint x="940" y="610" />
              <mxPoint x="940" y="886" />
            </Array>
          </mxGeometry>
        </mxCell>
        <mxCell id="aQq8TngeYzNc_uCb0u1g-16" value="" style="endArrow=open;endFill=1;endSize=12;html=1;rounded=0;exitX=1;exitY=0.5;exitDx=0;exitDy=0;entryX=0;entryY=0.5;entryDx=0;entryDy=0;" edge="1" parent="WIyWlLk6GJQsqaUBKTNV-1" source="jW0DkB4AbIYyDmSMOtam-96" target="aQq8TngeYzNc_uCb0u1g-8">
          <mxGeometry width="160" relative="1" as="geometry">
            <mxPoint x="760" y="1050" as="sourcePoint" />
            <mxPoint x="920" y="1050" as="targetPoint" />
            <Array as="points">
              <mxPoint x="1000" y="585" />
              <mxPoint x="1000" y="1000" />
            </Array>
          </mxGeometry>
        </mxCell>
        <mxCell id="aQq8TngeYzNc_uCb0u1g-22" value="" style="endArrow=diamondThin;endFill=0;endSize=24;html=1;rounded=0;exitX=0;exitY=0.5;exitDx=0;exitDy=0;entryX=1;entryY=0.5;entryDx=0;entryDy=0;" edge="1" parent="WIyWlLk6GJQsqaUBKTNV-1" source="jW0DkB4AbIYyDmSMOtam-77" target="aQq8TngeYzNc_uCb0u1g-23">
          <mxGeometry width="160" relative="1" as="geometry">
            <mxPoint x="320" y="1289" as="sourcePoint" />
            <mxPoint x="120" y="1100" as="targetPoint" />
            <Array as="points" />
          </mxGeometry>
        </mxCell>
        <mxCell id="aQq8TngeYzNc_uCb0u1g-32" value="смещение блоков при повороте фигуры" style="text;html=1;align=center;verticalAlign=middle;whiteSpace=wrap;rounded=0;" vertex="1" parent="WIyWlLk6GJQsqaUBKTNV-1">
          <mxGeometry x="320" y="380" width="140" height="80" as="geometry" />
        </mxCell>
        <mxCell id="aQq8TngeYzNc_uCb0u1g-33" value="" style="endArrow=open;endFill=1;endSize=12;html=1;rounded=0;exitX=0;exitY=0.5;exitDx=0;exitDy=0;entryX=0.988;entryY=0.074;entryDx=0;entryDy=0;entryPerimeter=0;" edge="1" parent="WIyWlLk6GJQsqaUBKTNV-1" source="gmlxUq-wJRHVVtqLA2Y4-16" target="jW0DkB4AbIYyDmSMOtam-8">
          <mxGeometry width="160" relative="1" as="geometry">
            <mxPoint x="250" y="1344" as="sourcePoint" />
            <mxPoint x="219" y="1020" as="targetPoint" />
            <Array as="points" />
          </mxGeometry>
        </mxCell>
        <mxCell id="aQq8TngeYzNc_uCb0u1g-34" value="" style="endArrow=open;endFill=1;endSize=12;html=1;rounded=0;exitX=0.75;exitY=0;exitDx=0;exitDy=0;entryX=0.662;entryY=1.003;entryDx=0;entryDy=0;entryPerimeter=0;" edge="1" parent="WIyWlLk6GJQsqaUBKTNV-1" source="gmlxUq-wJRHVVtqLA2Y4-15" target="jW0DkB4AbIYyDmSMOtam-28">
          <mxGeometry width="160" relative="1" as="geometry">
            <mxPoint x="190" y="1120" as="sourcePoint" />
            <mxPoint x="159" y="796" as="targetPoint" />
            <Array as="points">
              <mxPoint x="130" y="920" />
              <mxPoint x="-321" y="920" />
            </Array>
          </mxGeometry>
        </mxCell>
        <mxCell id="aQq8TngeYzNc_uCb0u1g-35" value="" style="endArrow=open;endFill=1;endSize=12;html=1;rounded=0;exitX=1;exitY=0.5;exitDx=0;exitDy=0;entryX=1;entryY=0.5;entryDx=0;entryDy=0;" edge="1" parent="WIyWlLk6GJQsqaUBKTNV-1" source="gmlxUq-wJRHVVtqLA2Y4-23" target="jW0DkB4AbIYyDmSMOtam-62">
          <mxGeometry width="160" relative="1" as="geometry">
            <mxPoint x="400" y="1384" as="sourcePoint" />
            <mxPoint x="369" y="1060" as="targetPoint" />
            <Array as="points">
              <mxPoint x="250" y="1065" />
              <mxPoint x="250" y="793" />
            </Array>
          </mxGeometry>
        </mxCell>
        <mxCell id="aQq8TngeYzNc_uCb0u1g-50" value="" style="endArrow=diamondThin;endFill=1;endSize=24;html=1;rounded=0;exitX=0.009;exitY=0.072;exitDx=0;exitDy=0;exitPerimeter=0;entryX=1;entryY=0.5;entryDx=0;entryDy=0;" edge="1" parent="WIyWlLk6GJQsqaUBKTNV-1" source="jW0DkB4AbIYyDmSMOtam-95" target="jW0DkB4AbIYyDmSMOtam-1">
          <mxGeometry width="160" relative="1" as="geometry">
            <mxPoint x="480" y="960" as="sourcePoint" />
            <mxPoint x="600" y="590" as="targetPoint" />
            <Array as="points" />
          </mxGeometry>
        </mxCell>
        <mxCell id="aQq8TngeYzNc_uCb0u1g-60" value="" style="endArrow=diamondThin;endFill=0;endSize=24;html=1;rounded=0;exitX=0;exitY=0.5;exitDx=0;exitDy=0;entryX=1;entryY=0.5;entryDx=0;entryDy=0;" edge="1" parent="WIyWlLk6GJQsqaUBKTNV-1" source="aQq8TngeYzNc_uCb0u1g-56" target="jW0DkB4AbIYyDmSMOtam-38">
          <mxGeometry width="160" relative="1" as="geometry">
            <mxPoint x="21" y="571" as="sourcePoint" />
            <mxPoint x="-80" y="560" as="targetPoint" />
            <Array as="points" />
          </mxGeometry>
        </mxCell>
        <mxCell id="aQq8TngeYzNc_uCb0u1g-62" value="" style="endArrow=diamondThin;endFill=1;endSize=24;html=1;rounded=0;exitX=0;exitY=0.09;exitDx=0;exitDy=0;exitPerimeter=0;entryX=1;entryY=0.5;entryDx=0;entryDy=0;" edge="1" parent="WIyWlLk6GJQsqaUBKTNV-1" source="jW0DkB4AbIYyDmSMOtam-29" target="aQq8TngeYzNc_uCb0u1g-56">
          <mxGeometry width="160" relative="1" as="geometry">
            <mxPoint x="320" y="910" as="sourcePoint" />
            <mxPoint x="388" y="650" as="targetPoint" />
            <Array as="points" />
          </mxGeometry>
        </mxCell>
        <mxCell id="aQq8TngeYzNc_uCb0u1g-76" value="" style="endArrow=diamondThin;endFill=0;endSize=24;html=1;rounded=0;entryX=0;entryY=0.5;entryDx=0;entryDy=0;exitX=1;exitY=0.5;exitDx=0;exitDy=0;" edge="1" parent="WIyWlLk6GJQsqaUBKTNV-1" source="jW0DkB4AbIYyDmSMOtam-42" target="jW0DkB4AbIYyDmSMOtam-59">
          <mxGeometry width="160" relative="1" as="geometry">
            <mxPoint x="-30" y="545" as="sourcePoint" />
            <mxPoint x="270" y="1038" as="targetPoint" />
            <Array as="points">
              <mxPoint x="-170" y="550" />
              <mxPoint x="-170" y="759" />
            </Array>
          </mxGeometry>
        </mxCell>
        <mxCell id="jW0DkB4AbIYyDmSMOtam-58" value="+ CurrentFigure" style="swimlane;fontStyle=2;align=center;verticalAlign=top;childLayout=stackLayout;horizontal=1;startSize=26;horizontalStack=0;resizeParent=1;resizeLast=0;collapsible=1;marginBottom=0;rounded=0;shadow=0;strokeWidth=1;fillColor=#d5e8d4;strokeColor=#82b366;" parent="WIyWlLk6GJQsqaUBKTNV-1" vertex="1">
          <mxGeometry x="-110" y="720" width="240" height="190" as="geometry">
            <mxRectangle x="230" y="140" width="160" height="26" as="alternateBounds" />
          </mxGeometry>
        </mxCell>
        <mxCell id="jW0DkB4AbIYyDmSMOtam-59" value="- figure: Figure " style="text;align=left;verticalAlign=top;spacingLeft=4;spacingRight=4;overflow=hidden;rotatable=0;points=[[0,0.5],[1,0.5]];portConstraint=eastwest;" parent="jW0DkB4AbIYyDmSMOtam-58" vertex="1">
          <mxGeometry y="26" width="240" height="26" as="geometry" />
        </mxCell>
        <mxCell id="jW0DkB4AbIYyDmSMOtam-61" value="" style="line;html=1;strokeWidth=1;align=left;verticalAlign=middle;spacingTop=-1;spacingLeft=3;spacingRight=3;rotatable=0;labelPosition=right;points=[];portConstraint=eastwest;" parent="jW0DkB4AbIYyDmSMOtam-58" vertex="1">
          <mxGeometry y="52" width="240" height="8" as="geometry" />
        </mxCell>
        <mxCell id="jW0DkB4AbIYyDmSMOtam-62" value="+ CurrentFigure(figure: Figure)" style="text;align=left;verticalAlign=top;spacingLeft=4;spacingRight=4;overflow=hidden;rotatable=0;points=[[0,0.5],[1,0.5]];portConstraint=eastwest;" parent="jW0DkB4AbIYyDmSMOtam-58" vertex="1">
          <mxGeometry y="60" width="240" height="26" as="geometry" />
        </mxCell>
        <mxCell id="aQq8TngeYzNc_uCb0u1g-78" value="+ setFigure(newFigure: Figure)" style="text;align=left;verticalAlign=top;spacingLeft=4;spacingRight=4;overflow=hidden;rotatable=0;points=[[0,0.5],[1,0.5]];portConstraint=eastwest;" vertex="1" parent="jW0DkB4AbIYyDmSMOtam-58">
          <mxGeometry y="86" width="240" height="26" as="geometry" />
        </mxCell>
        <mxCell id="aQq8TngeYzNc_uCb0u1g-80" value="+ getFigure(): Figure" style="text;align=left;verticalAlign=top;spacingLeft=4;spacingRight=4;overflow=hidden;rotatable=0;points=[[0,0.5],[1,0.5]];portConstraint=eastwest;" vertex="1" parent="jW0DkB4AbIYyDmSMOtam-58">
          <mxGeometry y="112" width="240" height="26" as="geometry" />
        </mxCell>
        <mxCell id="jW0DkB4AbIYyDmSMOtam-63" value="+ setPosiionFigure()" style="text;align=left;verticalAlign=top;spacingLeft=4;spacingRight=4;overflow=hidden;rotatable=0;points=[[0,0.5],[1,0.5]];portConstraint=eastwest;" parent="jW0DkB4AbIYyDmSMOtam-58" vertex="1">
          <mxGeometry y="138" width="240" height="26" as="geometry" />
        </mxCell>
        <mxCell id="aQq8TngeYzNc_uCb0u1g-77" value="+ setOffsetFigure()" style="text;align=left;verticalAlign=top;spacingLeft=4;spacingRight=4;overflow=hidden;rotatable=0;points=[[0,0.5],[1,0.5]];portConstraint=eastwest;" vertex="1" parent="jW0DkB4AbIYyDmSMOtam-58">
          <mxGeometry y="164" width="240" height="26" as="geometry" />
        </mxCell>
        <mxCell id="aQq8TngeYzNc_uCb0u1g-86" value="" style="endArrow=diamondThin;endFill=0;endSize=24;html=1;rounded=0;entryX=0;entryY=0.5;entryDx=0;entryDy=0;exitX=-0.008;exitY=0.056;exitDx=0;exitDy=0;exitPerimeter=0;" edge="1" parent="WIyWlLk6GJQsqaUBKTNV-1" source="gmlxUq-wJRHVVtqLA2Y4-41" target="jW0DkB4AbIYyDmSMOtam-14">
          <mxGeometry width="160" relative="1" as="geometry">
            <mxPoint x="-480" y="1350" as="sourcePoint" />
            <mxPoint x="-340" y="1110" as="targetPoint" />
            <Array as="points">
              <mxPoint x="-450" y="1323" />
              <mxPoint x="-450" y="1250" />
            </Array>
          </mxGeometry>
        </mxCell>
        <mxCell id="aQq8TngeYzNc_uCb0u1g-87" value="" style="endArrow=open;endFill=1;endSize=12;html=1;rounded=0;exitX=0;exitY=0.5;exitDx=0;exitDy=0;entryX=0.75;entryY=0;entryDx=0;entryDy=0;" edge="1" parent="WIyWlLk6GJQsqaUBKTNV-1" source="aQq8TngeYzNc_uCb0u1g-94" target="jW0DkB4AbIYyDmSMOtam-87">
          <mxGeometry width="160" relative="1" as="geometry">
            <mxPoint x="403" y="1203" as="sourcePoint" />
            <mxPoint x="10" y="1110" as="targetPoint" />
            <Array as="points">
              <mxPoint x="-800" y="955" />
              <mxPoint x="-800" y="1640" />
              <mxPoint x="1320" y="1640" />
              <mxPoint x="1320" y="910" />
              <mxPoint x="1230" y="910" />
            </Array>
          </mxGeometry>
        </mxCell>
        <mxCell id="aQq8TngeYzNc_uCb0u1g-90" value="" style="endArrow=diamondThin;endFill=0;endSize=24;html=1;rounded=0;exitX=0;exitY=0.5;exitDx=0;exitDy=0;entryX=1;entryY=0.5;entryDx=0;entryDy=0;" edge="1" parent="WIyWlLk6GJQsqaUBKTNV-1" source="jW0DkB4AbIYyDmSMOtam-62" target="aQq8TngeYzNc_uCb0u1g-88">
          <mxGeometry width="160" relative="1" as="geometry">
            <mxPoint x="270" y="1075" as="sourcePoint" />
            <mxPoint x="200" y="850" as="targetPoint" />
            <Array as="points" />
          </mxGeometry>
        </mxCell>
        <mxCell id="aQq8TngeYzNc_uCb0u1g-91" value="+ ScreenObject" style="swimlane;fontStyle=2;align=center;verticalAlign=top;childLayout=stackLayout;horizontal=1;startSize=26;horizontalStack=0;resizeParent=1;resizeLast=0;collapsible=1;marginBottom=0;rounded=0;shadow=0;strokeWidth=1;fillColor=#d5e8d4;strokeColor=#82b366;" vertex="1" parent="WIyWlLk6GJQsqaUBKTNV-1">
          <mxGeometry x="-730" y="890" width="240" height="120" as="geometry">
            <mxRectangle x="230" y="140" width="160" height="26" as="alternateBounds" />
          </mxGeometry>
        </mxCell>
        <mxCell id="aQq8TngeYzNc_uCb0u1g-102" value="- position: Position" style="text;align=left;verticalAlign=top;spacingLeft=4;spacingRight=4;overflow=hidden;rotatable=0;points=[[0,0.5],[1,0.5]];portConstraint=eastwest;" vertex="1" parent="aQq8TngeYzNc_uCb0u1g-91">
          <mxGeometry y="26" width="240" height="26" as="geometry" />
        </mxCell>
        <mxCell id="aQq8TngeYzNc_uCb0u1g-94" value="- size: Size" style="text;align=left;verticalAlign=top;spacingLeft=4;spacingRight=4;overflow=hidden;rotatable=0;points=[[0,0.5],[1,0.5]];portConstraint=eastwest;" vertex="1" parent="aQq8TngeYzNc_uCb0u1g-91">
          <mxGeometry y="52" width="240" height="26" as="geometry" />
        </mxCell>
        <mxCell id="aQq8TngeYzNc_uCb0u1g-95" value="" style="line;html=1;strokeWidth=1;align=left;verticalAlign=middle;spacingTop=-1;spacingLeft=3;spacingRight=3;rotatable=0;labelPosition=right;points=[];portConstraint=eastwest;" vertex="1" parent="aQq8TngeYzNc_uCb0u1g-91">
          <mxGeometry y="78" width="240" height="8" as="geometry" />
        </mxCell>
        <mxCell id="aQq8TngeYzNc_uCb0u1g-96" value="+ ScreenObject(pos: Position, size: Size)" style="text;align=left;verticalAlign=top;spacingLeft=4;spacingRight=4;overflow=hidden;rotatable=0;points=[[0,0.5],[1,0.5]];portConstraint=eastwest;" vertex="1" parent="aQq8TngeYzNc_uCb0u1g-91">
          <mxGeometry y="86" width="240" height="26" as="geometry" />
        </mxCell>
        <mxCell id="aQq8TngeYzNc_uCb0u1g-103" value="" style="endArrow=block;endSize=16;endFill=0;html=1;rounded=0;entryX=0.5;entryY=1;entryDx=0;entryDy=0;exitX=0.5;exitY=0;exitDx=0;exitDy=0;" edge="1" parent="WIyWlLk6GJQsqaUBKTNV-1" source="jW0DkB4AbIYyDmSMOtam-8" target="aQq8TngeYzNc_uCb0u1g-91">
          <mxGeometry width="160" relative="1" as="geometry">
            <mxPoint x="-630" y="1210" as="sourcePoint" />
            <mxPoint x="-470" y="1210" as="targetPoint" />
            <Array as="points">
              <mxPoint x="-280" y="1040" />
              <mxPoint x="-610" y="1040" />
            </Array>
          </mxGeometry>
        </mxCell>
        <mxCell id="aQq8TngeYzNc_uCb0u1g-104" value="" style="endArrow=block;endSize=16;endFill=0;html=1;rounded=0;entryX=0.5;entryY=1;entryDx=0;entryDy=0;exitX=0.5;exitY=0;exitDx=0;exitDy=0;" edge="1" parent="WIyWlLk6GJQsqaUBKTNV-1" source="gmlxUq-wJRHVVtqLA2Y4-15" target="aQq8TngeYzNc_uCb0u1g-91">
          <mxGeometry width="160" relative="1" as="geometry">
            <mxPoint x="-60" y="1060" as="sourcePoint" />
            <mxPoint x="-400" y="1000" as="targetPoint" />
            <Array as="points">
              <mxPoint x="70" y="950" />
              <mxPoint x="-340" y="950" />
              <mxPoint x="-340" y="1040" />
              <mxPoint x="-610" y="1040" />
            </Array>
          </mxGeometry>
        </mxCell>
        <mxCell id="aQq8TngeYzNc_uCb0u1g-105" value="" style="endArrow=block;endSize=16;endFill=0;html=1;rounded=0;entryX=0.5;entryY=1;entryDx=0;entryDy=0;exitX=0;exitY=0.5;exitDx=0;exitDy=0;" edge="1" parent="WIyWlLk6GJQsqaUBKTNV-1" source="gmlxUq-wJRHVVtqLA2Y4-42" target="aQq8TngeYzNc_uCb0u1g-91">
          <mxGeometry width="160" relative="1" as="geometry">
            <mxPoint x="5" y="1168" as="sourcePoint" />
            <mxPoint x="-670" y="1208" as="targetPoint" />
            <Array as="points">
              <mxPoint x="-610" y="1350" />
            </Array>
          </mxGeometry>
        </mxCell>
        <mxCell id="aQq8TngeYzNc_uCb0u1g-106" value="" style="endArrow=block;endSize=16;endFill=0;html=1;rounded=0;entryX=0.5;entryY=0;entryDx=0;entryDy=0;exitX=-0.006;exitY=0.079;exitDx=0;exitDy=0;exitPerimeter=0;" edge="1" parent="WIyWlLk6GJQsqaUBKTNV-1" source="jW0DkB4AbIYyDmSMOtam-37" target="aQq8TngeYzNc_uCb0u1g-91">
          <mxGeometry width="160" relative="1" as="geometry">
            <mxPoint x="-135" y="476" as="sourcePoint" />
            <mxPoint x="-810" y="516" as="targetPoint" />
            <Array as="points">
              <mxPoint x="-610" y="463" />
            </Array>
          </mxGeometry>
        </mxCell>
        <mxCell id="aQq8TngeYzNc_uCb0u1g-107" value="" style="endArrow=diamondThin;endFill=0;endSize=24;html=1;rounded=0;entryX=1;entryY=0.5;entryDx=0;entryDy=0;exitX=-0.019;exitY=0.071;exitDx=0;exitDy=0;exitPerimeter=0;" edge="1" parent="WIyWlLk6GJQsqaUBKTNV-1" source="jW0DkB4AbIYyDmSMOtam-66" target="jW0DkB4AbIYyDmSMOtam-97">
          <mxGeometry width="160" relative="1" as="geometry">
            <mxPoint x="1361" y="410" as="sourcePoint" />
            <mxPoint x="1020" y="877" as="targetPoint" />
            <Array as="points">
              <mxPoint x="1080" y="559" />
            </Array>
          </mxGeometry>
        </mxCell>
        <mxCell id="aQq8TngeYzNc_uCb0u1g-108" value="" style="endArrow=open;endFill=1;endSize=12;html=1;rounded=0;exitX=0;exitY=0.5;exitDx=0;exitDy=0;entryX=0.778;entryY=1.178;entryDx=0;entryDy=0;entryPerimeter=0;" edge="1" parent="WIyWlLk6GJQsqaUBKTNV-1" source="aQq8TngeYzNc_uCb0u1g-102" target="aQq8TngeYzNc_uCb0u1g-49">
          <mxGeometry width="160" relative="1" as="geometry">
            <mxPoint x="-780" y="995" as="sourcePoint" />
            <mxPoint x="1320" y="1000" as="targetPoint" />
            <Array as="points">
              <mxPoint x="-840" y="929" />
              <mxPoint x="-840" y="1680" />
              <mxPoint x="1360" y="1680" />
            </Array>
          </mxGeometry>
        </mxCell>
        <mxCell id="aQq8TngeYzNc_uCb0u1g-109" value="+1..1" style="text;html=1;align=center;verticalAlign=middle;whiteSpace=wrap;rounded=0;" vertex="1" parent="WIyWlLk6GJQsqaUBKTNV-1">
          <mxGeometry x="340" y="1410" width="60" height="30" as="geometry" />
        </mxCell>
        <mxCell id="aQq8TngeYzNc_uCb0u1g-110" value="+1..1" style="text;html=1;align=center;verticalAlign=middle;whiteSpace=wrap;rounded=0;" vertex="1" parent="WIyWlLk6GJQsqaUBKTNV-1">
          <mxGeometry x="-120" y="1338.5" width="60" height="30" as="geometry" />
        </mxCell>
        <mxCell id="aQq8TngeYzNc_uCb0u1g-111" value="+1..1" style="text;html=1;align=center;verticalAlign=middle;whiteSpace=wrap;rounded=0;" vertex="1" parent="WIyWlLk6GJQsqaUBKTNV-1">
          <mxGeometry x="-50" y="1338.5" width="60" height="30" as="geometry" />
        </mxCell>
        <mxCell id="aQq8TngeYzNc_uCb0u1g-112" value="+1..*" style="text;html=1;align=center;verticalAlign=middle;whiteSpace=wrap;rounded=0;" vertex="1" parent="WIyWlLk6GJQsqaUBKTNV-1">
          <mxGeometry x="-730" y="1044" width="60" height="30" as="geometry" />
        </mxCell>
        <mxCell id="aQq8TngeYzNc_uCb0u1g-113" value="+ демонстрирует" style="text;html=1;align=center;verticalAlign=middle;whiteSpace=wrap;rounded=0;" vertex="1" parent="WIyWlLk6GJQsqaUBKTNV-1">
          <mxGeometry x="-230" y="1570" width="120" height="30" as="geometry" />
        </mxCell>
        <mxCell id="aQq8TngeYzNc_uCb0u1g-114" value="" style="endArrow=diamondThin;endFill=1;endSize=24;html=1;rounded=0;exitX=0;exitY=0.5;exitDx=0;exitDy=0;entryX=0.25;entryY=1;entryDx=0;entryDy=0;" edge="1" parent="WIyWlLk6GJQsqaUBKTNV-1" source="aQq8TngeYzNc_uCb0u1g-41" target="aQq8TngeYzNc_uCb0u1g-91">
          <mxGeometry width="160" relative="1" as="geometry">
            <mxPoint x="-420" y="1570" as="sourcePoint" />
            <mxPoint x="-260" y="1570" as="targetPoint" />
            <Array as="points">
              <mxPoint x="320" y="1412" />
              <mxPoint x="320" y="1600" />
              <mxPoint x="-670" y="1600" />
            </Array>
          </mxGeometry>
        </mxCell>
        <mxCell id="aQq8TngeYzNc_uCb0u1g-117" value="+1..1" style="text;html=1;align=center;verticalAlign=middle;whiteSpace=wrap;rounded=0;" vertex="1" parent="WIyWlLk6GJQsqaUBKTNV-1">
          <mxGeometry x="900" y="560" width="60" height="20" as="geometry" />
        </mxCell>
        <mxCell id="aQq8TngeYzNc_uCb0u1g-118" value="+1..1" style="text;html=1;align=center;verticalAlign=middle;whiteSpace=wrap;rounded=0;" vertex="1" parent="WIyWlLk6GJQsqaUBKTNV-1">
          <mxGeometry x="1110" y="530" width="60" height="30" as="geometry" />
        </mxCell>
        <mxCell id="aQq8TngeYzNc_uCb0u1g-119" value="+1..1" style="text;html=1;align=center;verticalAlign=middle;whiteSpace=wrap;rounded=0;" vertex="1" parent="WIyWlLk6GJQsqaUBKTNV-1">
          <mxGeometry x="1290" y="770" width="60" height="30" as="geometry" />
        </mxCell>
        <mxCell id="aQq8TngeYzNc_uCb0u1g-120" value="+1..1" style="text;html=1;align=center;verticalAlign=middle;whiteSpace=wrap;rounded=0;" vertex="1" parent="WIyWlLk6GJQsqaUBKTNV-1">
          <mxGeometry x="1170" y="920" width="60" height="30" as="geometry" />
        </mxCell>
        <mxCell id="aQq8TngeYzNc_uCb0u1g-121" value="+1..1" style="text;html=1;align=center;verticalAlign=middle;whiteSpace=wrap;rounded=0;" vertex="1" parent="WIyWlLk6GJQsqaUBKTNV-1">
          <mxGeometry x="990" y="1000" width="60" height="30" as="geometry" />
        </mxCell>
        <mxCell id="aQq8TngeYzNc_uCb0u1g-122" value="+1..1" style="text;html=1;align=center;verticalAlign=middle;whiteSpace=wrap;rounded=0;" vertex="1" parent="WIyWlLk6GJQsqaUBKTNV-1">
          <mxGeometry x="790" y="900" width="60" height="30" as="geometry" />
        </mxCell>
        <mxCell id="aQq8TngeYzNc_uCb0u1g-123" value="+1..1" style="text;html=1;align=center;verticalAlign=middle;whiteSpace=wrap;rounded=0;" vertex="1" parent="WIyWlLk6GJQsqaUBKTNV-1">
          <mxGeometry x="880" y="615" width="60" height="30" as="geometry" />
        </mxCell>
        <mxCell id="aQq8TngeYzNc_uCb0u1g-124" value="+1..1" style="text;html=1;align=center;verticalAlign=middle;whiteSpace=wrap;rounded=0;" vertex="1" parent="WIyWlLk6GJQsqaUBKTNV-1">
          <mxGeometry x="940" y="590" width="60" height="20" as="geometry" />
        </mxCell>
        <mxCell id="aQq8TngeYzNc_uCb0u1g-125" value="+1..1" style="text;html=1;align=center;verticalAlign=middle;whiteSpace=wrap;rounded=0;" vertex="1" parent="WIyWlLk6GJQsqaUBKTNV-1">
          <mxGeometry x="520" y="540" width="60" height="20" as="geometry" />
        </mxCell>
        <mxCell id="aQq8TngeYzNc_uCb0u1g-126" value="+1..*" style="text;html=1;align=center;verticalAlign=middle;whiteSpace=wrap;rounded=0;" vertex="1" parent="WIyWlLk6GJQsqaUBKTNV-1">
          <mxGeometry x="580" y="535" width="60" height="30" as="geometry" />
        </mxCell>
        <mxCell id="aQq8TngeYzNc_uCb0u1g-127" value="+1..4" style="text;html=1;align=center;verticalAlign=middle;whiteSpace=wrap;rounded=0;" vertex="1" parent="WIyWlLk6GJQsqaUBKTNV-1">
          <mxGeometry x="210" y="490" width="60" height="30" as="geometry" />
        </mxCell>
        <mxCell id="aQq8TngeYzNc_uCb0u1g-128" value="+1..1" style="text;html=1;align=center;verticalAlign=middle;whiteSpace=wrap;rounded=0;" vertex="1" parent="WIyWlLk6GJQsqaUBKTNV-1">
          <mxGeometry x="130" y="490" width="60" height="30" as="geometry" />
        </mxCell>
        <mxCell id="aQq8TngeYzNc_uCb0u1g-129" value="+1..1" style="text;html=1;align=center;verticalAlign=middle;whiteSpace=wrap;rounded=0;" vertex="1" parent="WIyWlLk6GJQsqaUBKTNV-1">
          <mxGeometry x="-170" y="490" width="60" height="30" as="geometry" />
        </mxCell>
        <mxCell id="aQq8TngeYzNc_uCb0u1g-130" value="+1..1" style="text;html=1;align=center;verticalAlign=middle;whiteSpace=wrap;rounded=0;" vertex="1" parent="WIyWlLk6GJQsqaUBKTNV-1">
          <mxGeometry x="-260" y="490" width="60" height="30" as="geometry" />
        </mxCell>
        <mxCell id="aQq8TngeYzNc_uCb0u1g-131" value="+1..1" style="text;html=1;align=center;verticalAlign=middle;whiteSpace=wrap;rounded=0;" vertex="1" parent="WIyWlLk6GJQsqaUBKTNV-1">
          <mxGeometry x="-260" y="550" width="60" height="30" as="geometry" />
        </mxCell>
        <mxCell id="aQq8TngeYzNc_uCb0u1g-132" value="+1..1" style="text;html=1;align=center;verticalAlign=middle;whiteSpace=wrap;rounded=0;" vertex="1" parent="WIyWlLk6GJQsqaUBKTNV-1">
          <mxGeometry x="-180" y="760" width="60" height="20" as="geometry" />
        </mxCell>
        <mxCell id="aQq8TngeYzNc_uCb0u1g-133" value="+1..1" style="text;html=1;align=center;verticalAlign=middle;whiteSpace=wrap;rounded=0;" vertex="1" parent="WIyWlLk6GJQsqaUBKTNV-1">
          <mxGeometry x="-240" y="800" width="60" height="30" as="geometry" />
        </mxCell>
        <mxCell id="aQq8TngeYzNc_uCb0u1g-134" value="+1..1" style="text;html=1;align=center;verticalAlign=middle;whiteSpace=wrap;rounded=0;" vertex="1" parent="WIyWlLk6GJQsqaUBKTNV-1">
          <mxGeometry x="-170" y="800" width="60" height="30" as="geometry" />
        </mxCell>
        <mxCell id="aQq8TngeYzNc_uCb0u1g-135" value="+1..1" style="text;html=1;align=center;verticalAlign=middle;whiteSpace=wrap;rounded=0;" vertex="1" parent="WIyWlLk6GJQsqaUBKTNV-1">
          <mxGeometry x="-370" y="870" width="60" height="30" as="geometry" />
        </mxCell>
        <mxCell id="aQq8TngeYzNc_uCb0u1g-136" value="+1..1" style="text;html=1;align=center;verticalAlign=middle;whiteSpace=wrap;rounded=0;" vertex="1" parent="WIyWlLk6GJQsqaUBKTNV-1">
          <mxGeometry x="80" y="970" width="60" height="30" as="geometry" />
        </mxCell>
        <mxCell id="aQq8TngeYzNc_uCb0u1g-138" value="+1..1" style="text;html=1;align=center;verticalAlign=middle;whiteSpace=wrap;rounded=0;" vertex="1" parent="WIyWlLk6GJQsqaUBKTNV-1">
          <mxGeometry x="140" y="790" width="60" height="30" as="geometry" />
        </mxCell>
        <mxCell id="aQq8TngeYzNc_uCb0u1g-139" value="+1..1" style="text;html=1;align=center;verticalAlign=middle;whiteSpace=wrap;rounded=0;" vertex="1" parent="WIyWlLk6GJQsqaUBKTNV-1">
          <mxGeometry x="190" y="1060" width="60" height="30" as="geometry" />
        </mxCell>
        <mxCell id="aQq8TngeYzNc_uCb0u1g-140" value="+1..1" style="text;html=1;align=center;verticalAlign=middle;whiteSpace=wrap;rounded=0;" vertex="1" parent="WIyWlLk6GJQsqaUBKTNV-1">
          <mxGeometry x="-110" y="1090" width="60" height="30" as="geometry" />
        </mxCell>
        <mxCell id="aQq8TngeYzNc_uCb0u1g-141" value="" style="endArrow=diamondThin;endFill=1;endSize=24;html=1;rounded=0;exitX=0;exitY=0.5;exitDx=0;exitDy=0;entryX=1;entryY=0.5;entryDx=0;entryDy=0;" edge="1" parent="WIyWlLk6GJQsqaUBKTNV-1" source="aQq8TngeYzNc_uCb0u1g-13" target="aQq8TngeYzNc_uCb0u1g-84">
          <mxGeometry width="160" relative="1" as="geometry">
            <mxPoint x="132" y="1253" as="sourcePoint" />
            <mxPoint y="1250" as="targetPoint" />
            <Array as="points">
              <mxPoint x="590" y="611" />
              <mxPoint x="590" y="770" />
              <mxPoint x="310" y="770" />
              <mxPoint x="310" y="1270" />
              <mxPoint x="-100" y="1270" />
              <mxPoint x="-100" y="1147" />
            </Array>
          </mxGeometry>
        </mxCell>
        <mxCell id="aQq8TngeYzNc_uCb0u1g-143" value="+1..1" style="text;html=1;align=center;verticalAlign=middle;whiteSpace=wrap;rounded=0;" vertex="1" parent="WIyWlLk6GJQsqaUBKTNV-1">
          <mxGeometry x="-170" y="1090" width="60" height="30" as="geometry" />
        </mxCell>
        <mxCell id="aQq8TngeYzNc_uCb0u1g-144" value="+1..1" style="text;html=1;align=center;verticalAlign=middle;whiteSpace=wrap;rounded=0;" vertex="1" parent="WIyWlLk6GJQsqaUBKTNV-1">
          <mxGeometry x="-170" y="1150" width="60" height="30" as="geometry" />
        </mxCell>
        <mxCell id="aQq8TngeYzNc_uCb0u1g-145" value="+1..*" style="text;html=1;align=center;verticalAlign=middle;whiteSpace=wrap;rounded=0;" vertex="1" parent="WIyWlLk6GJQsqaUBKTNV-1">
          <mxGeometry x="580" y="610" width="60" height="30" as="geometry" />
        </mxCell>
        <mxCell id="aQq8TngeYzNc_uCb0u1g-146" value="+1..1" style="text;html=1;align=center;verticalAlign=middle;whiteSpace=wrap;rounded=0;" vertex="1" parent="WIyWlLk6GJQsqaUBKTNV-1">
          <mxGeometry x="-790" y="960" width="60" height="30" as="geometry" />
        </mxCell>
        <mxCell id="aQq8TngeYzNc_uCb0u1g-147" value="+1..1" style="text;html=1;align=center;verticalAlign=middle;whiteSpace=wrap;rounded=0;" vertex="1" parent="WIyWlLk6GJQsqaUBKTNV-1">
          <mxGeometry x="-790" y="920" width="60" height="30" as="geometry" />
        </mxCell>
        <mxCell id="aQq8TngeYzNc_uCb0u1g-148" value="+1..1" style="text;html=1;align=center;verticalAlign=middle;whiteSpace=wrap;rounded=0;" vertex="1" parent="WIyWlLk6GJQsqaUBKTNV-1">
          <mxGeometry x="-420" y="1320" width="60" height="30" as="geometry" />
        </mxCell>
        <mxCell id="aQq8TngeYzNc_uCb0u1g-149" value="+1..1" style="text;html=1;align=center;verticalAlign=middle;whiteSpace=wrap;rounded=0;" vertex="1" parent="WIyWlLk6GJQsqaUBKTNV-1">
          <mxGeometry x="-460" y="1250" width="60" height="30" as="geometry" />
        </mxCell>
        <mxCell id="aQq8TngeYzNc_uCb0u1g-150" value="+1..1" style="text;html=1;align=center;verticalAlign=middle;whiteSpace=wrap;rounded=0;" vertex="1" parent="WIyWlLk6GJQsqaUBKTNV-1">
          <mxGeometry x="1040" y="1368.5" width="60" height="30" as="geometry" />
        </mxCell>
        <mxCell id="aQq8TngeYzNc_uCb0u1g-151" value="+1..1" style="text;html=1;align=center;verticalAlign=middle;whiteSpace=wrap;rounded=0;" vertex="1" parent="WIyWlLk6GJQsqaUBKTNV-1">
          <mxGeometry x="1120" y="1264" width="60" height="30" as="geometry" />
        </mxCell>
      </root>
    </mxGraphModel>
  </diagram>
</mxfile>
